<svg xmlns="http://www.w3.org/2000/svg" xmlns:xlink="http://www.w3.org/1999/xlink" width="500" zoomAndPan="magnify" viewBox="0 0 375 374.999991" height="500" preserveAspectRatio="xMidYMid meet" version="1.0"><defs><clipPath id="af1bbb2451"><path d="M 83 11.03125 L 292 11.03125 L 292 102 L 83 102 Z M 83 11.03125 " clip-rule="nonzero"/></clipPath></defs><path stroke-linecap="butt" transform="matrix(0.75, 0, 0, 0.75, 0.266628, -1.706659)" fill="none" stroke-linejoin="miter" d="M 281.785139 149.312014 C 281.753889 150.035972 281.998681 150.499514 282.519515 150.69743 C 282.826806 150.801597 283.082015 150.983889 283.290348 151.239097 L 305.352849 177.869307 " stroke="#f3dc6e" stroke-width="2" stroke-opacity="1" stroke-miterlimit="4"/><path stroke-linecap="butt" transform="matrix(0.75, 0, 0, 0.75, 0.266628, -1.706659)" fill="none" stroke-linejoin="miter" d="M 215.347635 263.562021 C 215.30076 262.910979 215.097635 262.431813 214.73826 262.124521 C 214.561177 261.973479 214.358052 261.952646 214.123677 262.056813 C 214.066385 262.077646 214.029927 262.124521 214.01951 262.197438 C 214.009093 262.780771 213.774718 262.884938 213.316385 262.509938 C 210.878885 260.525563 208.628885 258.192229 206.561176 255.509937 " stroke="#e1bc43" stroke-width="2" stroke-opacity="1" stroke-miterlimit="4"/><path stroke-linecap="butt" transform="matrix(0.75, 0, 0, 0.75, 0.266628, -1.706659)" fill="none" stroke-linejoin="miter" d="M 114.160128 167.535973 C 113.878878 166.45264 113.769503 165.447431 113.826795 164.525556 C 113.87367 163.968265 113.759087 163.45264 113.477837 162.989098 L 110.941378 158.593264 C 110.774712 158.301598 110.576795 158.035973 110.34242 157.806806 C 109.691378 157.150556 109.514295 156.322431 109.821587 155.317222 " stroke="#ddb43b" stroke-width="2" stroke-opacity="1" stroke-miterlimit="4"/><path stroke-linecap="butt" transform="matrix(0.75, 0, 0, 0.75, 0.266628, -1.706659)" fill="none" stroke-linejoin="miter" d="M 392.128897 352.27036 L 391.045563 351.848485 C 390.686188 351.70786 390.420563 351.806819 390.259105 352.14536 C 390.165355 352.343277 390.165355 352.556819 390.259105 352.775569 C 390.363272 353.02036 390.509105 353.218277 390.696605 353.369319 C 391.139313 353.744319 391.076813 353.905777 390.503897 353.858902 C 390.259105 353.838069 390.139313 353.728694 390.154938 353.530777 C 390.186188 352.723485 389.86848 352.546402 389.191397 353.004735 C 388.43098 353.504735 387.691396 353.905777 386.967438 354.213069 C 386.253896 354.494319 385.74348 354.285985 385.425771 353.598485 L 384.040355 350.588069 " stroke="#eed466" stroke-width="2" stroke-opacity="1" stroke-miterlimit="4"/><g clip-path="url(#af1bbb2451)"><path fill="#000000" d="M 278.738281 58.324219 C 271.085938 55.421875 269.863281 45.824219 276.703125 41.226562 C 279.585938 39.292969 282.40625 38.910156 285.175781 40.074219 C 290.859375 42.476562 293.183594 48.503906 289.742188 53.753906 C 283.054688 63.941406 276.25 73.953125 269.324219 83.78125 C 268.441406 85.035156 267.804688 86.5 267.410156 88.179688 C 266.316406 92.871094 264.613281 97.285156 262.300781 101.417969 C 262.074219 101.820312 261.734375 102.003906 261.277344 101.96875 L 258.285156 101.703125 C 257.628906 101.644531 257.425781 101.3125 257.679688 100.707031 L 263.273438 87.273438 C 263.328125 87.148438 263.351562 87.019531 263.351562 86.882812 C 263.351562 86.746094 263.324219 86.613281 263.269531 86.488281 C 263.214844 86.363281 263.136719 86.253906 263.039062 86.160156 C 262.9375 86.066406 262.824219 85.996094 262.695312 85.949219 C 252.691406 82.367188 242.355469 79.53125 231.695312 77.441406 C 191.578125 69.570312 151.570312 72.390625 111.675781 85.898438 C 111.5625 85.933594 111.464844 85.988281 111.378906 86.066406 C 111.292969 86.144531 111.226562 86.238281 111.179688 86.34375 C 111.132812 86.449219 111.105469 86.5625 111.105469 86.679688 C 111.105469 86.792969 111.128906 86.90625 111.175781 87.011719 L 116.875 100.824219 C 117.058594 101.28125 116.90625 101.535156 116.414062 101.585938 L 113.117188 101.941406 C 112.742188 101.984375 112.453125 101.839844 112.253906 101.507812 C 109.914062 97.550781 108.269531 93.207031 107.316406 88.46875 C 107.007812 86.964844 106.445312 85.609375 105.621094 84.398438 C 99.828125 75.898438 93.09375 66.046875 85.425781 54.84375 C 82.277344 50.25 82.394531 45.074219 87.015625 41.398438 C 88.933594 39.875 90.972656 39.28125 93.136719 39.613281 C 101.15625 40.835938 105.488281 50.027344 99.214844 56.289062 C 98.28125 57.21875 97.246094 57.507812 96.15625 58.152344 C 95.953125 58.277344 95.828125 58.457031 95.777344 58.6875 C 95.726562 58.917969 95.769531 59.128906 95.90625 59.320312 C 98.648438 63.273438 100.828125 68.027344 106.199219 68.355469 C 112.226562 68.722656 115.179688 59.175781 116.675781 54.832031 C 119.855469 45.585938 122.847656 35.5625 125.65625 24.75 C 125.722656 24.484375 125.890625 24.320312 126.15625 24.261719 C 126.425781 24.207031 126.644531 24.285156 126.8125 24.5 C 132.730469 31.898438 138.078125 38.117188 142.859375 43.160156 C 147.242188 47.765625 153.269531 52.085938 159.71875 53.230469 C 159.988281 53.277344 160.257812 53.265625 160.523438 53.195312 C 160.789062 53.125 161.027344 53.003906 161.238281 52.828125 C 161.449219 52.648438 161.613281 52.4375 161.726562 52.1875 C 161.84375 51.9375 161.898438 51.679688 161.898438 51.402344 C 161.898438 48.875 162.589844 46.566406 163.972656 44.484375 C 170.175781 35.128906 177.191406 24.617188 185.019531 12.960938 C 185.4375 12.328125 185.921875 11.785156 186.460938 11.332031 C 186.589844 11.222656 186.738281 11.144531 186.898438 11.097656 C 187.0625 11.046875 187.226562 11.035156 187.394531 11.058594 C 187.5625 11.082031 187.71875 11.136719 187.863281 11.226562 C 188.007812 11.3125 188.125 11.429688 188.222656 11.566406 C 195.320312 22.160156 202.449219 32.769531 209.609375 43.394531 C 211.300781 45.898438 212.234375 48.417969 212.40625 50.957031 C 212.539062 52.953125 213.566406 53.671875 215.492188 53.109375 C 221.65625 51.324219 227.265625 47.730469 232.324219 42.332031 C 237.648438 36.667969 242.78125 30.746094 247.726562 24.566406 C 248.269531 23.882812 248.65625 23.96875 248.882812 24.816406 C 251.691406 35.320312 254.734375 45.734375 258.007812 56.066406 C 258.71875 58.316406 259.960938 61.023438 261.738281 64.191406 C 262.832031 66.152344 264.136719 67.402344 265.648438 67.933594 C 272.398438 70.296875 275.757812 63.246094 278.949219 59.085938 C 278.996094 59.023438 279.027344 58.953125 279.042969 58.875 C 279.058594 58.796875 279.054688 58.722656 279.035156 58.644531 C 279.015625 58.570312 278.976562 58.503906 278.925781 58.449219 C 278.875 58.390625 278.8125 58.351562 278.738281 58.324219 Z M 187.933594 26.902344 C 192.554688 35.429688 196.753906 43.9375 200.523438 52.429688 C 202.023438 55.773438 202.269531 58.949219 201.273438 61.960938 C 201.105469 62.460938 201.28125 62.75 201.796875 62.828125 C 215.714844 64.796875 234.308594 61.761719 241.554688 48.671875 C 243 46.054688 244.277344 43.28125 245.390625 40.347656 C 246.1875 38.273438 245.820312 38.042969 244.289062 39.652344 C 235.242188 49.210938 226.378906 57.691406 212.644531 59.242188 C 209.125 59.636719 206.511719 57.8125 206.761719 54.097656 C 206.917969 51.8125 206.332031 49.652344 205.003906 47.621094 C 199.453125 39.191406 193.796875 30.894531 188.039062 22.726562 C 187.433594 21.871094 186.832031 21.871094 186.226562 22.726562 C 180.546875 30.753906 174.910156 39.078125 169.316406 47.703125 C 167.988281 49.761719 167.632812 52.046875 167.515625 54.4375 C 167.410156 56.445312 166.214844 59.230469 163.773438 59.191406 C 158.882812 59.113281 154.605469 58.183594 150.945312 56.40625 C 142.949219 52.507812 136.320312 45.929688 130.1875 39.402344 C 128.585938 37.707031 128.1875 37.953125 128.992188 40.152344 C 131.199219 46.152344 132.800781 51.300781 138.617188 55.605469 C 145.726562 60.847656 153.699219 63.453125 162.539062 63.417969 C 165.910156 63.410156 169.242188 63.210938 172.53125 62.828125 C 173.082031 62.765625 173.304688 62.464844 173.203125 61.921875 C 172.421875 57.84375 172.898438 53.875 174.632812 50.027344 C 178.019531 42.507812 182.027344 34.789062 186.660156 26.878906 C 187.097656 26.132812 187.523438 26.140625 187.933594 26.902344 Z M 108.757812 79.199219 C 112.699219 77.703125 115.839844 75.636719 118.1875 73.003906 C 123.203125 67.394531 127.824219 58.980469 128.0625 51.195312 C 128.148438 48.140625 128.1875 45.085938 128.179688 42.027344 C 128.171875 41.058594 127.886719 40.964844 127.324219 41.753906 C 126.128906 43.433594 126.117188 45.351562 125.566406 47.269531 C 124.128906 52.25 122.46875 57.191406 120.578125 62.09375 C 118.054688 68.589844 113.183594 75.367188 105.292969 73.84375 C 104.53125 73.695312 104.371094 73.941406 104.808594 74.578125 L 107.828125 78.910156 C 107.929688 79.0625 108.070312 79.164062 108.242188 79.21875 C 108.417969 79.269531 108.589844 79.265625 108.757812 79.199219 Z M 252.847656 59.570312 C 250.835938 53.800781 248.957031 47.914062 247.214844 41.910156 C 246.882812 40.78125 246.652344 40.804688 246.519531 41.976562 C 244.679688 58.039062 250.597656 70.351562 264.269531 78.910156 C 265.480469 79.671875 266.488281 79.460938 267.304688 78.28125 L 269.890625 74.539062 C 270 74.371094 270 74.207031 269.894531 74.039062 C 269.785156 73.875 269.636719 73.8125 269.445312 73.855469 C 260.09375 75.761719 255.34375 66.714844 252.847656 59.570312 Z M 144.445312 72.242188 C 145.742188 72.136719 147 71.933594 148.214844 71.636719 C 150.148438 71.15625 152.019531 70.789062 153.820312 70.535156 C 156.113281 70.210938 158.519531 69.882812 161.03125 69.550781 C 171.742188 68.121094 184.257812 67.691406 198.570312 68.25 C 204.617188 68.484375 210.410156 69.027344 215.953125 69.878906 C 217.554688 70.121094 219.195312 70.292969 220.875 70.390625 C 223.804688 70.546875 226.339844 71.730469 229.160156 71.964844 C 230.246094 72.054688 231.351562 72.203125 232.46875 72.410156 C 241.292969 74.117188 249.679688 76.027344 257.628906 78.136719 C 257.75 78.164062 257.828125 78.113281 257.863281 77.992188 C 257.898438 77.886719 257.863281 77.816406 257.757812 77.78125 C 241.863281 72.933594 226.171875 69.742188 210.6875 68.210938 C 207.648438 67.914062 204.65625 67.566406 201.707031 67.171875 C 198.695312 66.769531 195.691406 66.554688 192.699219 66.53125 C 185.703125 66.449219 179.082031 66.347656 171.914062 67.226562 C 168.535156 67.636719 165.089844 67.949219 161.582031 68.15625 C 160.480469 68.226562 159.328125 68.347656 158.128906 68.511719 C 143.246094 70.605469 128.472656 74.003906 113.800781 78.714844 C 113.574219 78.785156 113.574219 78.859375 113.800781 78.9375 C 113.925781 78.972656 114.046875 78.976562 114.167969 78.949219 C 122.722656 76.867188 131.574219 74.816406 140.730469 72.792969 C 141.972656 72.519531 143.210938 72.335938 144.445312 72.242188 Z M 144.445312 72.242188 " fill-opacity="1" fill-rule="nonzero"/></g><path fill="#000000" d="M 193.683594 82.011719 C 193.683594 82.421875 193.644531 82.832031 193.5625 83.238281 C 193.484375 83.640625 193.363281 84.035156 193.207031 84.417969 C 193.046875 84.796875 192.855469 85.160156 192.625 85.503906 C 192.394531 85.847656 192.132812 86.164062 191.84375 86.457031 C 191.550781 86.75 191.234375 87.011719 190.890625 87.238281 C 190.546875 87.46875 190.183594 87.664062 189.800781 87.820312 C 189.421875 87.980469 189.027344 88.097656 188.621094 88.179688 C 188.21875 88.257812 187.808594 88.300781 187.394531 88.300781 C 186.980469 88.300781 186.574219 88.257812 186.167969 88.179688 C 185.761719 88.097656 185.371094 87.980469 184.988281 87.820312 C 184.605469 87.664062 184.246094 87.46875 183.902344 87.238281 C 183.558594 87.011719 183.238281 86.75 182.949219 86.457031 C 182.65625 86.164062 182.394531 85.847656 182.164062 85.503906 C 181.9375 85.160156 181.742188 84.796875 181.585938 84.417969 C 181.425781 84.035156 181.308594 83.640625 181.226562 83.238281 C 181.144531 82.832031 181.105469 82.421875 181.105469 82.011719 C 181.105469 81.597656 181.144531 81.1875 181.226562 80.78125 C 181.308594 80.378906 181.425781 79.984375 181.585938 79.601562 C 181.742188 79.222656 181.9375 78.859375 182.164062 78.515625 C 182.394531 78.171875 182.65625 77.855469 182.949219 77.5625 C 183.238281 77.269531 183.558594 77.011719 183.902344 76.78125 C 184.246094 76.550781 184.605469 76.359375 184.988281 76.199219 C 185.371094 76.042969 185.761719 75.921875 186.167969 75.839844 C 186.574219 75.761719 186.980469 75.722656 187.394531 75.722656 C 187.808594 75.722656 188.21875 75.761719 188.621094 75.839844 C 189.027344 75.921875 189.421875 76.042969 189.800781 76.199219 C 190.183594 76.359375 190.546875 76.550781 190.890625 76.78125 C 191.234375 77.011719 191.550781 77.269531 191.84375 77.5625 C 192.132812 77.855469 192.394531 78.171875 192.625 78.515625 C 192.855469 78.859375 193.046875 79.222656 193.207031 79.601562 C 193.363281 79.984375 193.484375 80.378906 193.5625 80.78125 C 193.644531 81.1875 193.683594 81.597656 193.683594 82.011719 Z M 193.683594 82.011719 " fill-opacity="1" fill-rule="nonzero"/><path fill="#000000" d="M 150.722656 86.265625 C 150.722656 86.625 150.6875 86.980469 150.617188 87.332031 C 150.546875 87.683594 150.445312 88.027344 150.304688 88.359375 C 150.167969 88.691406 150 89.007812 149.800781 89.304688 C 149.601562 89.605469 149.375 89.882812 149.121094 90.136719 C 148.863281 90.390625 148.589844 90.617188 148.289062 90.816406 C 147.992188 91.015625 147.675781 91.183594 147.34375 91.324219 C 147.011719 91.460938 146.667969 91.5625 146.316406 91.632812 C 145.964844 91.703125 145.605469 91.738281 145.246094 91.738281 C 144.886719 91.738281 144.53125 91.703125 144.179688 91.632812 C 143.828125 91.5625 143.484375 91.460938 143.152344 91.324219 C 142.820312 91.183594 142.503906 91.015625 142.207031 90.816406 C 141.90625 90.617188 141.628906 90.390625 141.375 90.136719 C 141.121094 89.882812 140.894531 89.605469 140.695312 89.304688 C 140.496094 89.007812 140.328125 88.691406 140.1875 88.359375 C 140.050781 88.027344 139.949219 87.683594 139.878906 87.332031 C 139.808594 86.980469 139.773438 86.625 139.773438 86.265625 C 139.773438 85.90625 139.808594 85.546875 139.878906 85.195312 C 139.949219 84.84375 140.050781 84.5 140.1875 84.167969 C 140.328125 83.835938 140.496094 83.519531 140.695312 83.222656 C 140.894531 82.921875 141.121094 82.648438 141.375 82.394531 C 141.628906 82.136719 141.90625 81.910156 142.207031 81.710938 C 142.503906 81.511719 142.820312 81.34375 143.152344 81.207031 C 143.484375 81.066406 143.828125 80.964844 144.179688 80.894531 C 144.53125 80.824219 144.886719 80.789062 145.246094 80.789062 C 145.605469 80.789062 145.964844 80.824219 146.316406 80.894531 C 146.667969 80.964844 147.011719 81.066406 147.34375 81.207031 C 147.675781 81.34375 147.992188 81.511719 148.289062 81.710938 C 148.589844 81.910156 148.863281 82.136719 149.121094 82.394531 C 149.375 82.648438 149.601562 82.921875 149.800781 83.222656 C 150 83.519531 150.167969 83.835938 150.304688 84.167969 C 150.445312 84.5 150.546875 84.84375 150.617188 85.195312 C 150.6875 85.546875 150.722656 85.90625 150.722656 86.265625 Z M 150.722656 86.265625 " fill-opacity="1" fill-rule="nonzero"/><path fill="#000000" d="M 234.492188 86.328125 C 234.492188 86.691406 234.457031 87.046875 234.386719 87.402344 C 234.316406 87.757812 234.210938 88.101562 234.074219 88.433594 C 233.933594 88.769531 233.765625 89.085938 233.566406 89.386719 C 233.363281 89.6875 233.136719 89.964844 232.878906 90.21875 C 232.625 90.476562 232.347656 90.703125 232.046875 90.902344 C 231.746094 91.105469 231.429688 91.273438 231.097656 91.414062 C 230.761719 91.550781 230.417969 91.65625 230.0625 91.726562 C 229.710938 91.796875 229.351562 91.832031 228.992188 91.832031 C 228.628906 91.832031 228.273438 91.796875 227.917969 91.726562 C 227.5625 91.65625 227.21875 91.550781 226.886719 91.414062 C 226.550781 91.273438 226.234375 91.105469 225.933594 90.902344 C 225.632812 90.703125 225.355469 90.476562 225.101562 90.21875 C 224.84375 89.964844 224.617188 89.6875 224.417969 89.386719 C 224.214844 89.085938 224.046875 88.769531 223.90625 88.433594 C 223.769531 88.101562 223.664062 87.757812 223.59375 87.402344 C 223.523438 87.046875 223.488281 86.691406 223.488281 86.328125 C 223.488281 85.96875 223.523438 85.609375 223.59375 85.257812 C 223.664062 84.902344 223.769531 84.558594 223.90625 84.222656 C 224.046875 83.890625 224.214844 83.574219 224.417969 83.273438 C 224.617188 82.972656 224.84375 82.695312 225.101562 82.441406 C 225.355469 82.183594 225.632812 81.957031 225.933594 81.753906 C 226.234375 81.554688 226.550781 81.386719 226.886719 81.246094 C 227.21875 81.109375 227.5625 81.003906 227.917969 80.933594 C 228.273438 80.863281 228.628906 80.828125 228.992188 80.828125 C 229.351562 80.828125 229.710938 80.863281 230.0625 80.933594 C 230.417969 81.003906 230.761719 81.109375 231.097656 81.246094 C 231.429688 81.386719 231.746094 81.554688 232.046875 81.753906 C 232.347656 81.957031 232.625 82.183594 232.878906 82.441406 C 233.136719 82.695312 233.363281 82.972656 233.566406 83.273438 C 233.765625 83.574219 233.933594 83.890625 234.074219 84.222656 C 234.210938 84.558594 234.316406 84.902344 234.386719 85.257812 C 234.457031 85.609375 234.492188 85.96875 234.492188 86.328125 Z M 234.492188 86.328125 " fill-opacity="1" fill-rule="nonzero"/><path fill="#000000" d="M 122.414062 102.363281 C 122.351562 102.335938 122.316406 102.289062 122.308594 102.21875 C 122.304688 102.148438 122.328125 102.097656 122.386719 102.058594 C 123.078125 101.605469 123.835938 101.253906 124.660156 101.007812 C 137.710938 97.15625 150.332031 94.648438 162.527344 93.484375 C 165.617188 93.1875 168.714844 92.863281 171.824219 92.515625 C 180.199219 91.582031 190.652344 91.304688 197.910156 92.199219 C 201.027344 92.574219 204.070312 92.871094 207.039062 93.089844 C 221.875 94.179688 236.699219 97.097656 251.0625 101.324219 C 252.347656 101.699219 252.382812 102.167969 251.167969 102.730469 L 247.082031 104.59375 C 246.515625 104.855469 245.925781 104.910156 245.3125 104.75 C 231.175781 101.082031 219.789062 98.902344 211.160156 98.210938 C 207.257812 97.90625 203.515625 97.542969 199.933594 97.121094 C 194.144531 96.453125 188.773438 96.609375 183.089844 96.585938 C 177.035156 96.542969 171.429688 97.59375 165.480469 97.84375 C 163.101562 97.949219 160.746094 98.171875 158.417969 98.515625 C 148.535156 99.96875 138.761719 102.042969 129.097656 104.738281 C 128.710938 104.84375 128.339844 104.820312 127.980469 104.671875 Z M 122.414062 102.363281 " fill-opacity="1" fill-rule="nonzero"/><path fill="#000000" d="M 211.605469 110.277344 C 211.582031 110.820312 211.765625 111.167969 212.15625 111.316406 C 212.386719 111.394531 212.578125 111.53125 212.734375 111.722656 L 229.28125 131.695312 C 235.285156 134.335938 239.433594 137.078125 241.726562 139.914062 C 246.863281 146.25 249.964844 154.609375 251.023438 164.992188 C 251.066406 165.359375 250.992188 165.703125 250.800781 166.027344 C 249.460938 168.347656 249.332031 170.9375 250.417969 173.800781 C 251.984375 177.949219 253.261719 182.070312 254.253906 186.15625 C 256.867188 196.871094 249.867188 203.738281 242.355469 209.960938 C 239.914062 211.976562 239.390625 211.558594 240.78125 208.714844 C 241.640625 206.953125 242.554688 205.203125 243.527344 203.460938 C 243.761719 203.035156 243.644531 202.882812 243.171875 203.015625 L 236.25 204.933594 C 236.148438 204.960938 236.050781 204.941406 235.960938 204.878906 C 235.867188 204.808594 235.808594 204.710938 235.792969 204.578125 C 235.773438 204.480469 235.808594 204.40625 235.898438 204.355469 C 244.292969 199.953125 247.054688 192.953125 244.183594 183.359375 C 243.28125 180.339844 243.027344 176.769531 243.421875 172.644531 C 243.445312 172.390625 243.335938 172.300781 243.09375 172.371094 L 242.582031 172.515625 C 242.222656 172.609375 242.007812 172.839844 241.9375 173.199219 L 239.914062 183.726562 C 239.808594 184.234375 239.582031 184.683594 239.230469 185.066406 C 237.050781 187.378906 234.136719 189.347656 232.601562 192.144531 C 232.109375 193.035156 231.574219 193.917969 230.988281 194.785156 C 230.699219 195.210938 230.359375 195.25 229.976562 194.902344 L 218.539062 184.304688 C 218.167969 183.960938 217.863281 183.566406 217.621094 183.121094 C 217.378906 182.675781 217.21875 182.203125 217.132812 181.707031 C 217.046875 181.207031 217.042969 180.707031 217.121094 180.210938 C 217.203125 179.710938 217.359375 179.238281 217.59375 178.792969 C 219.144531 175.867188 219.257812 172.59375 217.933594 168.96875 C 217.742188 168.4375 217.816406 167.941406 218.160156 167.484375 C 220.167969 164.859375 224.394531 164.019531 227.453125 164.191406 C 233.480469 164.53125 233.863281 157.742188 236.332031 154.277344 C 236.636719 153.839844 237.058594 153.574219 237.589844 153.476562 L 243.011719 152.519531 C 243.285156 152.472656 243.523438 152.351562 243.722656 152.160156 C 243.921875 151.96875 244.050781 151.738281 244.105469 151.46875 C 244.164062 151.199219 244.140625 150.933594 244.039062 150.679688 C 243.933594 150.421875 243.769531 150.21875 243.539062 150.0625 C 242.164062 149.144531 240.601562 148.652344 238.851562 148.59375 C 233.644531 148.390625 228.410156 148.304688 223.148438 148.328125 C 222.5625 148.339844 222.296875 148.050781 222.359375 147.464844 C 222.5 146.253906 222.507812 145.050781 222.386719 143.851562 C 222.265625 142.671875 221.929688 142.609375 221.386719 143.667969 C 218.621094 149.042969 215.074219 153.402344 210.738281 156.746094 C 207.800781 159.015625 204.554688 156.0625 201.929688 154.894531 C 201.230469 154.578125 201.019531 154.777344 201.300781 155.484375 C 202.558594 158.734375 204.625 160.851562 207.496094 161.839844 C 207.855469 161.960938 208.070312 162.207031 208.140625 162.574219 C 208.71875 165.464844 208.335938 168.367188 209.269531 171.148438 C 210.179688 173.878906 211.230469 176.511719 212.421875 179.039062 C 213.804688 181.972656 213.128906 184.421875 210.398438 186.394531 C 210.039062 186.648438 209.992188 186.949219 210.253906 187.300781 C 211.027344 188.335938 215.425781 186.433594 217.738281 188.507812 C 222.238281 192.542969 225.929688 196.410156 228.820312 200.113281 C 231.972656 204.171875 227.664062 208.398438 224.082031 210.5 C 219.386719 213.25 214.460938 215.199219 209.296875 216.355469 C 208.113281 216.617188 208.046875 217.054688 209.097656 217.667969 C 209.175781 217.722656 209.539062 217.738281 210.1875 217.722656 C 218.777344 217.539062 226.246094 215.304688 232.601562 211.023438 C 233.898438 210.160156 234.613281 210.5 234.753906 212.050781 L 235.097656 215.59375 C 235.246094 217.152344 234.570312 218.160156 233.074219 218.613281 C 225.238281 220.988281 217.203125 222.386719 208.96875 222.816406 C 208.519531 222.839844 208.179688 223.042969 207.945312 223.417969 L 207.746094 223.734375 C 207.613281 223.9375 207.671875 224.054688 207.917969 224.089844 C 216.128906 225.15625 224.246094 224.769531 232.273438 222.921875 C 233.605469 222.613281 234.125 223.132812 233.835938 224.46875 C 233.730469 224.953125 233.546875 225.410156 233.285156 225.847656 C 232.617188 226.960938 231.644531 227.578125 230.355469 227.699219 C 222.136719 228.496094 215.046875 229.324219 209.085938 230.183594 C 206.695312 230.53125 206.695312 230.890625 209.085938 231.257812 C 215.675781 232.28125 222.628906 232.050781 229.9375 230.5625 C 230.664062 230.414062 230.902344 230.683594 230.660156 231.375 C 228.109375 238.789062 223.738281 242.824219 217.542969 243.484375 C 213.226562 243.945312 208.832031 243.304688 204.359375 241.550781 C 200.113281 239.898438 196.191406 238.167969 192.59375 236.367188 C 188.667969 234.421875 188.511719 227.253906 189.195312 223.589844 C 189.316406 222.941406 189.679688 222.484375 190.285156 222.210938 C 193.160156 220.898438 195.863281 218.8125 196.507812 215.554688 C 197.675781 209.632812 203.230469 210.695312 207.550781 210.027344 C 208.214844 209.929688 208.792969 209.652344 209.28125 209.1875 C 212.371094 206.296875 213.890625 202.578125 213.839844 198.027344 C 213.804688 195.296875 213.046875 195.078125 211.566406 197.371094 C 209.585938 200.441406 207.5625 204.210938 203.453125 202.515625 C 201.824219 201.84375 200.324219 201.492188 198.949219 201.464844 C 196.769531 201.425781 194.394531 201.257812 192.304688 202.019531 C 188.953125 203.242188 185.632812 203.253906 182.339844 202.042969 C 180.015625 201.203125 177.585938 201.441406 175.15625 201.492188 C 174.292969 201.511719 173.265625 201.75 172.085938 202.214844 C 168.355469 203.667969 165.609375 202.53125 163.839844 198.800781 C 163.085938 197.191406 162.398438 196.246094 161.777344 195.964844 C 161.742188 195.476562 161.589844 195.117188 161.320312 194.886719 C 161.1875 194.773438 161.035156 194.757812 160.859375 194.835938 C 160.816406 194.851562 160.789062 194.886719 160.78125 194.941406 C 160.773438 195.378906 160.597656 195.457031 160.253906 195.175781 C 158.425781 193.6875 156.738281 191.9375 155.1875 189.925781 C 156.097656 188.402344 157.628906 187.628906 159.78125 187.601562 C 160.886719 187.59375 161.976562 187.609375 163.050781 187.652344 C 164.707031 187.722656 164.910156 187.214844 163.667969 186.128906 C 159.257812 182.269531 162.472656 178.121094 164.21875 174.128906 C 165.507812 171.179688 166.195312 167.425781 166.28125 162.863281 C 166.289062 162.390625 166.507812 162.058594 166.9375 161.867188 C 169.816406 160.605469 171.972656 158.390625 173.398438 155.222656 C 173.773438 154.382812 173.570312 154.203125 172.78125 154.683594 C 170.273438 156.21875 166.519531 158.964844 163.65625 156.71875 C 159.015625 153.105469 155.347656 148.65625 152.652344 143.378906 C 152.285156 142.652344 152.066406 142.691406 151.996094 143.496094 C 151.890625 144.695312 151.964844 145.910156 152.21875 147.132812 C 152.246094 147.269531 152.242188 147.402344 152.207031 147.535156 C 152.175781 147.664062 152.117188 147.785156 152.03125 147.890625 C 151.945312 147.996094 151.84375 148.074219 151.722656 148.136719 C 151.601562 148.195312 151.472656 148.222656 151.339844 148.222656 L 134.558594 148.488281 C 133.847656 148.496094 133.167969 148.636719 132.511719 148.910156 C 131.859375 149.1875 131.28125 149.574219 130.777344 150.074219 L 130.4375 150.417969 C 129.394531 151.46875 129.601562 152.121094 131.054688 152.375 L 136.660156 153.382812 C 137.273438 153.5 137.78125 153.796875 138.183594 154.277344 C 140.558594 157.179688 140.296875 160.621094 143.515625 163.128906 C 145.457031 164.636719 148.125 164.164062 150.421875 164.585938 C 152.339844 164.941406 154.113281 165.730469 155.75 166.949219 C 155.945312 167.09375 156.089844 167.277344 156.179688 167.496094 C 156.273438 167.71875 156.300781 167.945312 156.265625 168.183594 C 155.851562 170.949219 155.746094 173.601562 155.949219 176.140625 C 155.984375 176.59375 156.121094 177.019531 156.355469 177.414062 C 158.148438 180.292969 157.761719 182.828125 155.1875 185.015625 C 151.617188 188.035156 148.105469 191.253906 144.65625 194.679688 C 144.261719 195.070312 143.917969 195.03125 143.621094 194.558594 C 141.511719 191.121094 138.921875 188.046875 135.859375 185.34375 C 135.394531 184.941406 135.101562 184.4375 134.980469 183.832031 C 134.289062 180.480469 133.632812 177.203125 133.011719 174 C 132.886719 173.359375 132.527344 172.847656 131.933594 172.460938 C 131.453125 172.15625 131.234375 172.289062 131.277344 172.855469 C 131.554688 176.714844 131.460938 180.640625 130.292969 184.382812 C 127.71875 192.605469 130.410156 200.0625 138.394531 204.105469 C 138.628906 204.226562 138.699219 204.410156 138.605469 204.65625 L 138.472656 205 C 138.464844 205.015625 138.433594 205.015625 138.378906 205 L 131.816406 202.859375 C 130.886719 202.550781 130.6875 202.808594 131.210938 203.632812 C 132.515625 205.671875 133.554688 207.679688 134.324219 209.660156 C 135.085938 211.621094 134.664062 211.917969 133.0625 210.550781 C 129.320312 207.363281 122.730469 201.820312 121.257812 197.632812 C 120.773438 196.253906 120.144531 195.464844 120.011719 193.929688 C 119.609375 189.253906 120.21875 184.71875 121.835938 180.3125 C 122.738281 177.855469 123.621094 175.097656 124.488281 172.042969 C 125.191406 169.539062 124.832031 167.574219 123.414062 166.148438 C 123.105469 165.839844 122.984375 165.472656 123.046875 165.042969 C 124.113281 158.007812 125.945312 151.710938 128.546875 146.164062 C 130.882812 141.160156 135.058594 136.628906 140.140625 134.292969 C 141.664062 133.59375 143.171875 132.828125 144.671875 131.996094 C 145.449219 131.574219 145.398438 131.378906 144.511719 131.40625 C 138.507812 131.640625 132.808594 133.152344 127.417969 135.933594 C 126.761719 136.265625 126.628906 136.121094 127.023438 135.5 C 128.949219 132.429688 131.355469 130.058594 134.246094 128.386719 C 139.402344 125.410156 144.417969 122.265625 149.292969 118.957031 C 149.457031 118.851562 149.496094 118.707031 149.410156 118.53125 C 149.324219 118.351562 149.183594 118.289062 148.988281 118.339844 C 143.34375 120.136719 137.976562 121.417969 132.890625 122.1875 C 128.140625 122.921875 123.898438 122.136719 119.828125 119.484375 C 115.785156 116.84375 111.476562 115.425781 106.488281 115.847656 C 100.710938 116.332031 94.5 116.738281 89.511719 113.46875 C 89.316406 113.347656 89.117188 113.34375 88.921875 113.464844 C 88.726562 113.582031 88.644531 113.753906 88.671875 113.980469 C 88.730469 114.558594 88.910156 115.09375 89.210938 115.582031 C 92.925781 121.570312 98.453125 121.859375 104.742188 122.109375 C 105.792969 122.152344 105.8125 122.328125 104.808594 122.632812 C 98.734375 124.488281 92.425781 124.925781 85.886719 123.945312 C 85.675781 123.132812 85.59375 122.378906 85.636719 121.6875 C 85.671875 121.269531 85.585938 120.882812 85.375 120.535156 L 83.472656 117.238281 C 83.347656 117.019531 83.199219 116.820312 83.023438 116.648438 C 82.535156 116.15625 82.402344 115.535156 82.632812 114.78125 C 82.910156 115.027344 83.152344 115.148438 83.351562 115.148438 C 83.753906 115.160156 83.886719 114.96875 83.746094 114.585938 L 78.5625 100.496094 C 78.261719 99.675781 78.4375 99.558594 79.085938 100.15625 C 86.53125 106.90625 95.957031 110.121094 106.027344 109.203125 C 110.152344 108.835938 113.488281 107.296875 117.386719 106.472656 C 120.878906 105.734375 125.132812 109.714844 128.546875 110.621094 C 134.691406 112.257812 140.8125 112.457031 146.914062 111.222656 C 147.71875 111.058594 147.726562 110.875 146.929688 110.671875 C 144.5 110.03125 140.625 109.070312 138.878906 107.296875 C 138.230469 106.632812 138.371094 106.292969 139.300781 106.273438 C 146.152344 106.160156 152.871094 107.132812 159.453125 109.1875 C 171.269531 112.875 179.214844 120.363281 183.285156 131.65625 C 185.414062 137.554688 186.558594 143.726562 186.726562 150.167969 C 186.734375 150.316406 186.808594 150.390625 186.949219 150.390625 L 186.960938 150.402344 C 187.121094 150.402344 187.207031 150.328125 187.222656 150.179688 C 187.828125 145.472656 188.652344 140.800781 189.691406 136.171875 C 192.519531 123.679688 199.824219 115.050781 211.605469 110.277344 Z M 211.605469 110.277344 " fill-opacity="1" fill-rule="nonzero"/><path fill="#000000" d="M 294.363281 262.496094 L 293.550781 262.179688 C 293.28125 262.074219 293.082031 262.148438 292.960938 262.402344 C 292.890625 262.550781 292.890625 262.710938 292.960938 262.875 C 293.039062 263.058594 293.148438 263.207031 293.289062 263.320312 C 293.621094 263.601562 293.574219 263.722656 293.144531 263.6875 C 292.960938 263.671875 292.871094 263.589844 292.882812 263.441406 C 292.90625 262.835938 292.667969 262.703125 292.160156 263.046875 C 291.589844 263.421875 291.035156 263.722656 290.492188 263.953125 C 289.957031 264.164062 289.574219 264.007812 289.335938 263.492188 L 288.296875 261.234375 C 288.457031 257.566406 288.703125 253.398438 289.035156 248.734375 C 289.75 238.9375 289.179688 230.242188 287.3125 222.644531 C 285.074219 213.542969 281.449219 205.859375 276.441406 199.601562 C 273.5 195.933594 270.800781 192.414062 268.339844 189.046875 C 265.847656 185.613281 263.816406 181.035156 262.25 175.3125 C 262.003906 174.417969 262.148438 174.351562 262.683594 175.113281 C 263.46875 176.234375 264.214844 177.359375 264.914062 178.488281 C 267.394531 182.402344 270.824219 185.183594 274.933594 187.546875 C 287.472656 194.769531 300.363281 202.882812 308.386719 214.78125 C 311.023438 218.683594 312.464844 223.160156 312.71875 228.210938 C 312.730469 228.273438 312.761719 228.304688 312.8125 228.304688 L 313.152344 228.316406 C 313.320312 228.316406 313.417969 228.234375 313.441406 228.066406 C 314.605469 220.636719 313.386719 213.492188 309.78125 206.640625 C 306.320312 200.066406 301.304688 194.421875 294.734375 189.703125 C 288.46875 185.210938 281.71875 181.128906 275.929688 175.902344 C 267.886719 168.636719 261.609375 159.695312 257.101562 149.078125 C 255.804688 146.039062 256.113281 145.871094 258.019531 148.566406 C 261.433594 153.398438 264.960938 157.464844 268.605469 160.761719 C 272.226562 164.046875 276.519531 167.210938 281.484375 170.257812 C 295.492188 178.855469 309.121094 187.445312 319.957031 199.785156 C 322.386719 202.550781 324.445312 205.789062 326.125 209.503906 C 326.976562 211.375 327.511719 211.289062 327.742188 209.238281 C 329.144531 196.410156 320.492188 184.304688 309.570312 178.410156 C 308.28125 177.710938 308.367188 177.273438 309.820312 177.097656 L 321.597656 175.640625 C 323.546875 175.402344 323.597656 174.96875 321.742188 174.339844 C 302.273438 167.703125 286.574219 156.675781 274.644531 141.253906 C 274.011719 140.4375 274.183594 140.203125 275.15625 140.542969 C 279.109375 141.933594 283.53125 143.734375 287.667969 144.179688 C 288.691406 144.292969 289.683594 144.515625 290.636719 144.851562 C 293.355469 145.796875 296.519531 145.703125 299.300781 145.902344 C 300.484375 145.988281 300.570312 145.722656 299.5625 145.097656 L 279.003906 132.496094 C 278.503906 132.1875 278.511719 131.902344 279.027344 131.640625 L 294.691406 123.699219 C 295.628906 123.226562 295.578125 122.921875 294.535156 122.792969 C 293.808594 122.695312 293.128906 122.800781 292.5 123.105469 C 289.757812 124.417969 287.066406 124.15625 284.136719 124.339844 C 278.246094 124.734375 272.910156 124.175781 268.132812 122.660156 C 266.992188 122.292969 267.019531 122.097656 268.210938 122.070312 C 275.285156 121.871094 282.574219 121.703125 285.777344 114.257812 C 286.257812 113.144531 285.992188 112.925781 284.976562 113.601562 C 277.28125 118.746094 268.222656 114.375 260.136719 116.542969 C 257.570312 117.222656 254.914062 118.488281 252.164062 120.335938 C 245.863281 124.589844 235.070312 121.703125 228.464844 119.496094 C 223.90625 117.972656 223.664062 118.484375 227.742188 121.03125 C 232.277344 123.851562 236.636719 126.503906 240.820312 128.988281 C 243.457031 130.554688 245.765625 132.855469 247.753906 135.882812 C 248.09375 136.40625 247.988281 136.527344 247.4375 136.238281 C 242.082031 133.445312 236.027344 131.929688 229.28125 131.695312 L 212.734375 111.722656 C 212.578125 111.53125 212.386719 111.394531 212.15625 111.316406 C 211.765625 111.167969 211.582031 110.820312 211.605469 110.277344 C 219.710938 107.128906 227.890625 105.832031 236.148438 106.390625 C 237.144531 106.453125 237.246094 106.78125 236.449219 107.378906 C 233.78125 109.347656 230.554688 110.171875 227.480469 111.183594 C 226.667969 111.449219 226.6875 111.632812 227.546875 111.734375 C 232.738281 112.359375 237.921875 112.183594 243.105469 111.210938 C 247.371094 110.410156 250.773438 107.679688 254.832031 106.417969 C 255.882812 106.09375 256.945312 106.132812 258.019531 106.535156 C 271.867188 111.648438 284.320312 109.613281 295.375 100.429688 C 296.09375 99.835938 296.289062 99.976562 295.964844 100.851562 L 291.003906 114.285156 C 290.800781 114.828125 290.980469 115.015625 291.542969 114.847656 C 294.179688 114.058594 296.753906 112.5625 299.523438 112.65625 C 303.21875 112.777344 306.703125 112.484375 309.976562 111.777344 C 310.617188 111.644531 310.789062 111.871094 310.5 112.457031 C 307.882812 117.773438 304.585938 122.761719 300.601562 127.425781 C 298.316406 130.09375 295.074219 131.589844 291.84375 132.757812 C 290.664062 133.1875 290.695312 133.457031 291.949219 133.570312 C 293.820312 133.738281 295.652344 134.144531 297.4375 134.792969 C 301.925781 136.40625 303.859375 141.265625 307.929688 143.3125 C 311.007812 144.871094 314.898438 145.640625 319.601562 145.625 C 320.457031 145.625 320.519531 145.84375 319.785156 146.28125 C 313.140625 150.238281 306.777344 152.160156 300.695312 152.046875 C 295.863281 151.953125 290.726562 150.035156 286.210938 148.105469 C 283.058594 146.757812 282.855469 147.109375 285.59375 149.15625 C 291.363281 153.464844 297.9375 157.074219 305.316406 159.988281 C 310.390625 161.984375 316.132812 165.046875 322.542969 169.179688 C 326.507812 171.753906 331.140625 173.027344 335.828125 173.632812 C 336.871094 173.761719 336.933594 174.078125 336.011719 174.578125 C 332.082031 176.722656 327.691406 178.476562 322.84375 179.839844 C 322.152344 180.035156 322.035156 180.414062 322.488281 180.984375 C 323.433594 182.179688 325.050781 182.46875 326.324219 183.359375 C 333.441406 188.363281 335.277344 199.707031 334.765625 207.886719 C 334.265625 215.886719 332.441406 223.699219 329.289062 231.324219 C 329.054688 231.894531 328.875 231.875 328.753906 231.273438 C 327.6875 225.757812 326.664062 219.886719 324.273438 214.964844 C 322.96875 212.277344 321.5 209.773438 319.863281 207.453125 C 319.09375 206.359375 318.820312 206.46875 319.050781 207.78125 C 320.773438 217.523438 319.945312 227.53125 316.566406 237.796875 C 314.238281 244.859375 311.605469 252.464844 308.664062 260.605469 C 307.261719 264.472656 306.164062 268.28125 305.367188 272.027344 C 305.34375 272.148438 305.28125 272.234375 305.171875 272.289062 C 305.0625 272.34375 304.953125 272.34375 304.84375 272.289062 C 304.597656 272.167969 304.480469 271.964844 304.488281 271.6875 C 304.777344 266.539062 304.894531 261.550781 305.867188 256.375 C 308.175781 244.046875 308.597656 232.320312 301.023438 221.671875 C 300.46875 220.902344 300.3125 220.972656 300.550781 221.882812 C 302.046875 227.777344 302.347656 232.808594 300.667969 238.875 C 298.945312 245.058594 296.847656 251.621094 295.585938 258.175781 C 295.296875 259.679688 294.890625 261.121094 294.363281 262.496094 Z M 294.363281 262.496094 " fill-opacity="1" fill-rule="nonzero"/><path fill="#000000" d="M 82.632812 114.78125 C 82.402344 115.535156 82.535156 116.15625 83.023438 116.648438 C 83.199219 116.820312 83.347656 117.019531 83.472656 117.238281 L 85.375 120.535156 C 85.585938 120.882812 85.671875 121.269531 85.636719 121.6875 C 85.59375 122.378906 85.675781 123.132812 85.886719 123.945312 C 83.742188 123.703125 82.472656 123.535156 82.078125 123.449219 C 78.5625 122.644531 78.40625 123.0625 81.621094 124.707031 C 85.726562 126.800781 90.203125 129.070312 95.050781 131.523438 C 95.5 131.75 95.507812 132 95.078125 132.273438 L 74.910156 145.152344 C 74.5 145.414062 74.535156 145.585938 75.015625 145.664062 C 77.238281 146.003906 79.53125 145.929688 81.894531 145.441406 C 85.054688 144.777344 88.296875 144.027344 91.625 143.195312 C 94.316406 142.527344 96.878906 141.515625 99.488281 140.570312 C 100.515625 140.191406 100.683594 140.433594 100 141.292969 C 86.996094 157.625 70.882812 168.746094 51.671875 174.65625 C 50.207031 175.101562 50.238281 175.417969 51.761719 175.601562 L 64.589844 177.125 C 65.84375 177.273438 65.917969 177.652344 64.8125 178.265625 C 54.480469 184.070312 44.882812 196.988281 46.917969 209.738281 C 47.082031 210.789062 47.429688 210.855469 47.953125 209.933594 C 50.316406 205.863281 52.734375 201.753906 55.910156 198.261719 C 67.375 185.671875 82.054688 177.019531 96.457031 167.75 C 103.800781 163.023438 110.011719 157.160156 115.089844 150.167969 C 117.511719 146.824219 117.910156 147.046875 116.28125 150.835938 C 110.777344 163.703125 102.371094 174.015625 91.058594 181.773438 C 86.902344 184.617188 82.988281 187.363281 79.320312 190.015625 C 71.722656 195.503906 66.273438 202.609375 62.976562 211.328125 C 61.425781 215.449219 59.546875 223.628906 61.53125 227.570312 C 61.835938 228.179688 62.019531 228.148438 62.082031 227.464844 C 63.933594 207.546875 84.707031 196.4375 99.738281 187.324219 C 104.308594 184.554688 107.957031 181.390625 110.546875 176.636719 C 112.078125 173.828125 112.417969 173.964844 111.570312 177.042969 C 110.308594 181.601562 107.894531 186.683594 105.015625 190.398438 C 101.960938 194.371094 99.007812 198.339844 96.15625 202.308594 C 91.902344 208.207031 88.933594 215.375 87.253906 223.8125 C 85.449219 232.820312 84.832031 241.585938 85.402344 250.113281 C 85.988281 258.894531 86.53125 267.53125 87.03125 276.03125 C 87.039062 276.128906 87.089844 276.175781 87.1875 276.175781 C 87.328125 276.183594 87.40625 276.117188 87.421875 275.980469 C 88.25 269.164062 89.394531 262.414062 91.953125 256.046875 C 94.304688 250.164062 96.402344 244.019531 97.246094 237.902344 C 98.144531 231.371094 99.0625 224.957031 99.988281 218.652344 C 100.261719 216.816406 100.660156 214.984375 101.183594 213.164062 C 103.0625 206.679688 105.160156 200.640625 108.96875 195.203125 C 109.808594 194.011719 110.066406 194.125 109.746094 195.542969 C 108.140625 202.636719 106.683594 208.949219 108.40625 216.367188 C 109.113281 219.40625 109.78125 222.429688 110.402344 225.441406 C 111.882812 232.503906 109.664062 240.316406 107.195312 247.105469 C 105.175781 252.691406 104.429688 258.867188 104.964844 265.632812 C 105.261719 269.40625 105.753906 269.429688 106.4375 265.710938 C 108.574219 254.050781 115.71875 245.253906 123.476562 236.8125 C 124.203125 236.015625 124.421875 236.132812 124.132812 237.167969 C 123.058594 241.070312 122.175781 245.210938 121.484375 249.585938 C 118.660156 267.628906 126.800781 282.164062 135.335938 297.15625 C 137.03125 300.132812 137.511719 299.949219 136.765625 296.605469 C 134 284.097656 135.902344 271.960938 142.476562 260.195312 C 142.550781 260.066406 142.660156 259.988281 142.804688 259.953125 C 142.953125 259.921875 143.089844 259.953125 143.210938 260.039062 C 143.464844 260.214844 143.554688 260.449219 143.476562 260.75 C 140.085938 273.167969 142.792969 286.785156 149.726562 297.433594 C 151.6875 300.445312 153.539062 303.554688 155.277344 306.769531 C 159.226562 314 163.226562 321.664062 167.28125 329.757812 C 170.265625 335.710938 171.253906 341.957031 170.246094 348.496094 C 169.546875 353.046875 168.464844 357.355469 167.003906 361.414062 C 166.390625 363.121094 166.117188 363.070312 166.175781 361.257812 C 166.519531 351.839844 164.683594 342.933594 160.675781 334.539062 C 159.03125 331.089844 156.785156 327.535156 153.941406 323.878906 C 151.042969 320.140625 148.191406 316.238281 145.390625 312.179688 C 143.109375 308.871094 142.625 309.113281 143.949219 312.914062 C 145.761719 318.113281 146.972656 323.75 147.585938 329.824219 C 147.996094 333.902344 147.746094 337.222656 146.835938 339.777344 C 146.808594 339.839844 146.828125 339.859375 146.890625 339.84375 C 146.914062 339.835938 146.941406 339.816406 146.96875 339.789062 C 146.984375 339.765625 146.988281 339.734375 146.980469 339.699219 C 146.007812 334.867188 144.21875 330.921875 141.609375 327.867188 C 138.292969 324 134.328125 319.714844 129.714844 315.015625 C 121.21875 306.363281 112.910156 296.003906 108.328125 284.539062 C 107.921875 283.542969 107.691406 283.578125 107.628906 284.644531 C 107.386719 288.976562 106.921875 293.160156 106.238281 297.195312 C 105.941406 298.972656 105.546875 298.996094 105.058594 297.261719 C 102.578125 288.4375 100.609375 280.902344 99.148438 274.652344 C 98.273438 270.871094 97.507812 266.730469 96.851562 262.230469 C 96.71875 261.332031 96.453125 261.285156 96.050781 262.101562 C 95.253906 263.695312 94.632812 265.386719 94.183594 267.183594 C 92.503906 273.921875 91.960938 280.800781 92.558594 287.824219 C 93.03125 293.371094 94.84375 299.730469 97.992188 306.898438 C 101.300781 314.429688 105.433594 321.871094 110.386719 329.234375 C 110.765625 329.777344 110.691406 329.84375 110.164062 329.429688 C 95.890625 318.085938 84.652344 302.171875 82.539062 284.265625 C 81.847656 278.441406 81.183594 272.546875 80.542969 266.578125 C 80.421875 265.414062 80.179688 264.296875 79.820312 263.230469 C 79.28125 261.652344 79.453125 260.066406 79.058594 258.4375 C 77.449219 251.847656 75.707031 245.605469 73.832031 239.714844 C 72.277344 234.820312 72.285156 229.261719 73.859375 223.039062 C 74 222.488281 73.789062 222.265625 73.230469 222.371094 C 72.84375 222.4375 72.566406 222.636719 72.390625 222.960938 C 67.671875 231.40625 66.164062 240.625 67.871094 250.613281 C 69.019531 257.335938 69.75 263.628906 70.066406 269.492188 C 70.292969 273.816406 69.851562 273.886719 68.738281 269.703125 C 66.5 261.292969 63.566406 252.425781 59.941406 243.101562 C 55.3125 231.222656 53.9375 219.628906 55.820312 208.320312 C 56.238281 205.789062 55.691406 205.558594 54.179688 207.625 C 50.800781 212.238281 48.535156 217.453125 47.390625 223.277344 C 46.933594 225.621094 46.40625 227.972656 45.800781 230.328125 C 45.511719 231.472656 45.171875 231.484375 44.777344 230.367188 C 40.195312 217.25 37.488281 202.78125 42.964844 189.859375 C 44.679688 185.816406 47.660156 183.023438 51.90625 181.484375 C 53.28125 180.984375 53.277344 180.503906 51.894531 180.039062 C 47.410156 178.53125 43 176.679688 38.660156 174.484375 C 37.992188 174.144531 38.027344 173.898438 38.765625 173.75 C 42.519531 172.972656 46.574219 172.34375 49.898438 170.402344 C 54.21875 167.867188 58.144531 164.914062 62.832031 162.878906 C 71.757812 159.003906 81.316406 155.273438 88.984375 149.261719 C 91.253906 147.484375 91.058594 147.160156 88.40625 148.289062 C 82.972656 150.601562 76.328125 152.636719 70.378906 151.847656 C 65.628906 151.226562 60.414062 149.347656 54.742188 146.214844 C 54.085938 145.847656 54.132812 145.675781 54.886719 145.703125 C 58.511719 145.800781 62.089844 145.164062 65.628906 143.800781 C 68.714844 142.589844 70.667969 139.453125 72.953125 137.222656 C 75.449219 134.78125 79.714844 134.058594 83.246094 133.730469 C 84.160156 133.648438 84.195312 133.429688 83.351562 133.074219 C 80.554688 131.878906 77.8125 131.222656 75.527344 129.066406 C 71.027344 124.832031 67.109375 119.320312 63.777344 112.539062 C 63.46875 111.914062 63.65625 111.640625 64.339844 111.710938 C 68.199219 112.128906 71.90625 112.492188 75.460938 112.800781 C 78.046875 113.023438 80.042969 114.285156 82.632812 114.78125 Z M 115.796875 279.640625 C 116.191406 287.039062 118.3125 293.566406 122.164062 299.21875 C 124.308594 302.363281 126.511719 305.417969 128.769531 308.382812 C 130.792969 311.019531 131.21875 310.78125 130.054688 307.675781 C 127.5 300.785156 124.296875 293.558594 120.445312 285.996094 C 118.824219 282.828125 117.691406 279.121094 117.042969 274.875 C 116.914062 274.027344 116.699219 274.003906 116.402344 274.808594 C 115.902344 276.195312 115.699219 277.804688 115.796875 279.640625 Z M 115.796875 279.640625 " fill-opacity="1" fill-rule="nonzero"/><path fill="#000000" d="M 148.164062 161.09375 C 145.128906 160.027344 142.476562 156.3125 141.964844 153.03125 C 141.851562 152.320312 142.152344 151.917969 142.871094 151.820312 C 150.800781 150.746094 157.984375 155.378906 161.59375 162.390625 C 161.660156 162.511719 161.660156 162.632812 161.585938 162.75 C 161.511719 162.867188 161.40625 162.925781 161.265625 162.917969 C 155.882812 162.855469 151.515625 162.246094 148.164062 161.09375 Z M 148.164062 161.09375 " fill-opacity="1" fill-rule="nonzero"/><path fill="#000000" d="M 225.234375 161.539062 C 221.796875 162.414062 218.066406 162.886719 214.046875 162.957031 C 213.382812 162.972656 213.210938 162.6875 213.535156 162.101562 C 217.359375 155.234375 224.605469 150.46875 232.46875 151.902344 C 233.011719 151.996094 233.226562 152.3125 233.113281 152.847656 C 232.070312 157.582031 229.445312 160.480469 225.234375 161.539062 Z M 225.234375 161.539062 " fill-opacity="1" fill-rule="nonzero"/><path fill="#000000" d="M 155.1875 189.925781 C 156.738281 191.9375 158.425781 193.6875 160.253906 195.175781 C 160.597656 195.457031 160.773438 195.378906 160.78125 194.941406 C 160.789062 194.886719 160.816406 194.851562 160.859375 194.835938 C 161.035156 194.757812 161.1875 194.773438 161.320312 194.886719 C 161.589844 195.117188 161.742188 195.476562 161.777344 195.964844 L 161.175781 196.136719 C 160.746094 196.265625 160.535156 196.554688 160.542969 197.003906 C 160.621094 201.859375 162.433594 210.382812 168.804688 210.316406 C 173.082031 210.289062 177.246094 210.671875 178.296875 215.75 C 178.820312 218.246094 180.492188 220.09375 183.3125 221.292969 C 188.011719 223.289062 186.527344 234.316406 182.445312 236.234375 C 178.367188 238.144531 174.15625 239.972656 169.8125 241.722656 C 166.503906 243.054688 162.933594 243.695312 159.101562 243.652344 C 151.183594 243.5625 145.902344 238.835938 143.910156 231.21875 C 143.757812 230.675781 143.964844 230.460938 144.527344 230.574219 C 151.695312 232.019531 158.863281 232.222656 166.03125 231.179688 C 167.976562 230.890625 167.976562 230.605469 166.03125 230.328125 C 158.855469 229.265625 151.453125 228.367188 143.828125 227.621094 C 142.761719 227.523438 142.003906 226.992188 141.558594 226.019531 L 140.847656 224.496094 C 140.324219 223.351562 140.683594 222.871094 141.925781 223.066406 C 149.726562 224.285156 157.5625 225.558594 165.140625 224.285156 C 167.125 223.945312 167.152344 223.496094 165.21875 222.933594 C 162.894531 222.265625 160.726562 222.710938 158.390625 222.316406 C 152.550781 221.328125 146.90625 220.058594 141.453125 218.507812 C 140.402344 218.210938 139.824219 217.515625 139.71875 216.421875 C 139.578125 214.941406 139.632812 213.480469 139.878906 212.035156 C 140.113281 210.617188 140.832031 210.296875 142.03125 211.078125 C 148.246094 215.085938 155.058594 217.226562 162.472656 217.5 C 167.132812 217.671875 167.214844 217.140625 162.722656 215.894531 C 157.664062 214.503906 153.078125 212.460938 148.964844 209.765625 C 146.644531 208.257812 145.042969 206.199219 144.15625 203.582031 C 144.035156 203.210938 144.070312 202.863281 144.261719 202.53125 C 144.734375 201.75 145.246094 200.980469 145.800781 200.21875 C 148.355469 196.699219 151.484375 193.269531 155.1875 189.925781 Z M 155.1875 189.925781 " fill-opacity="1" fill-rule="nonzero"/><path fill="#000000" d="M 288.296875 261.234375 L 289.335938 263.492188 C 289.574219 264.007812 289.957031 264.164062 290.492188 263.953125 C 291.035156 263.722656 291.589844 263.421875 292.160156 263.046875 C 292.667969 262.703125 292.90625 262.835938 292.882812 263.441406 C 292.871094 263.589844 292.960938 263.671875 293.144531 263.6875 C 293.574219 263.722656 293.621094 263.601562 293.289062 263.320312 C 293.148438 263.207031 293.039062 263.058594 292.960938 262.875 C 292.890625 262.710938 292.890625 262.550781 292.960938 262.402344 C 293.082031 262.148438 293.28125 262.074219 293.550781 262.179688 L 294.363281 262.496094 C 293.753906 267.230469 293.195312 271.980469 292.699219 276.742188 C 291.980469 283.464844 291.269531 288.1875 290.570312 290.90625 C 286.605469 306.21875 276.441406 319.136719 264.480469 328.996094 C 263.359375 329.917969 263.207031 329.777344 264.019531 328.578125 C 271.820312 317.117188 278.554688 304.15625 281.128906 290.972656 C 282.425781 284.355469 282.203125 276.972656 280.460938 268.824219 C 279.949219 266.472656 278.675781 264.386719 278.609375 262.046875 C 278.601562 261.6875 278.421875 261.550781 278.070312 261.628906 C 277.9375 261.652344 277.820312 261.710938 277.714844 261.796875 C 277.628906 261.867188 277.574219 261.960938 277.558594 262.074219 C 276.71875 268.683594 275.601562 274.40625 274.210938 279.25 C 272.433594 285.410156 270.695312 291.613281 268.996094 297.855469 C 268.976562 297.914062 268.9375 297.945312 268.875 297.953125 C 268.8125 297.957031 268.765625 297.933594 268.734375 297.878906 C 266.816406 293.742188 266.960938 289.292969 266.738281 284.945312 C 266.644531 283.292969 266.285156 283.230469 265.664062 284.761719 C 260.082031 298.417969 250.472656 308.710938 238.640625 320.84375 C 233.691406 325.9375 229.253906 331.269531 227.847656 338.4375 C 227.332031 341.0625 226.953125 341.046875 226.707031 338.386719 C 226.167969 332.570312 226.167969 326.976562 227.71875 321.144531 C 228.636719 317.671875 229.550781 314.4375 230.460938 311.441406 C 231.03125 309.605469 230.734375 309.453125 229.570312 310.984375 C 225.289062 316.613281 221.035156 322.617188 216.804688 328.996094 C 213.296875 334.3125 210.785156 340.367188 209.269531 347.167969 C 208.664062 349.867188 208.375 352.410156 208.402344 354.796875 C 208.421875 357.1875 208.394531 359.660156 208.324219 362.214844 C 208.296875 363.160156 208.097656 363.203125 207.71875 362.335938 C 206.914062 360.503906 206.28125 358.492188 205.816406 356.296875 C 205.421875 354.421875 205.011719 352.566406 204.582031 350.726562 C 202.769531 342.996094 204.148438 335.878906 207.902344 328.339844 C 212.246094 319.632812 216.652344 311.1875 221.125 303.015625 C 222.597656 300.34375 224.300781 297.386719 226.234375 294.136719 C 231.839844 284.710938 233.296875 273.390625 231.105469 262.128906 C 230.605469 259.578125 230.976562 259.445312 232.21875 261.71875 C 238.460938 273.1875 240.136719 285.050781 237.25 297.316406 C 236.621094 300.011719 236.992188 300.160156 238.367188 297.761719 C 242.03125 291.371094 245.402344 285.0625 248.476562 278.828125 C 255 265.605469 254.1875 251.425781 250.328125 237.46875 C 250.082031 236.585938 250.292969 236.457031 250.957031 237.089844 C 255.675781 241.585938 259.800781 246.582031 263.339844 252.070312 C 266.226562 256.550781 267.84375 261.601562 268.183594 267.222656 C 268.191406 267.40625 268.289062 267.496094 268.472656 267.496094 L 268.839844 267.484375 C 269.007812 267.480469 269.15625 267.421875 269.277344 267.308594 C 269.402344 267.199219 269.46875 267.058594 269.484375 266.894531 C 269.890625 262.21875 270.085938 257.296875 268.878906 252.738281 C 267.722656 248.421875 266.453125 244.089844 265.070312 239.742188 C 264.273438 237.226562 263.761719 234.445312 263.535156 231.390625 C 263.167969 226.425781 264.902344 220.976562 266.097656 215.894531 C 267.828125 208.453125 266.136719 202.1875 264.558594 194.992188 C 264.402344 194.292969 264.558594 194.214844 265.03125 194.757812 C 268.589844 198.867188 271.886719 206.234375 273.09375 211.289062 C 274.75 218.21875 275.992188 226.027344 276.824219 234.710938 C 276.964844 236.226562 277.207031 237.683594 277.558594 239.082031 C 278.03125 241.054688 278.164062 243.035156 278.832031 244.925781 C 280.335938 249.15625 281.835938 253.335938 283.324219 257.464844 C 285.082031 262.351562 286.121094 267.472656 286.710938 272.644531 C 287.035156 275.488281 287.332031 275.484375 287.601562 272.632812 C 287.882812 269.8125 288.113281 266.011719 288.296875 261.234375 Z M 258.058594 276.453125 C 257.964844 273.28125 257.582031 273.253906 256.917969 276.359375 C 256.378906 278.878906 255.921875 281.664062 254.738281 283.960938 C 250.632812 291.988281 246.964844 300.101562 243.734375 308.304688 C 242.867188 310.511719 243.203125 310.710938 244.734375 308.910156 C 249.984375 302.738281 253.914062 296.429688 256.523438 289.988281 C 258.363281 285.445312 258.203125 281.113281 258.058594 276.453125 Z M 258.058594 276.453125 " fill-opacity="1" fill-rule="nonzero"/><path fill="#000000" d="M 186.515625 278.839844 L 185.84375 285.25 C 185.652344 287.085938 185.125 287.1875 184.257812 285.550781 C 180.871094 279.144531 176.285156 273.40625 175.511719 265.882812 C 175.425781 265.03125 175.136719 264.953125 174.644531 265.644531 C 172.875 268.113281 171.125 270.6875 170.078125 273.5625 C 169.261719 275.804688 168.507812 278.003906 167.816406 280.167969 C 167.625 280.78125 167.40625 280.792969 167.160156 280.207031 L 160.859375 264.9375 C 160.640625 264.421875 160.289062 264.296875 159.808594 264.570312 C 159.363281 264.8125 159.085938 265.1875 158.980469 265.683594 C 158.726562 266.894531 158.269531 267.992188 157.601562 268.980469 C 157.21875 269.542969 156.941406 269.488281 156.777344 268.824219 C 155.601562 263.929688 155.257812 259.238281 155.738281 254.746094 C 155.792969 254.285156 155.992188 253.894531 156.34375 253.578125 C 157.253906 252.765625 158.277344 252.113281 159.414062 251.621094 C 167.023438 248.359375 174.738281 245.003906 182.5625 241.566406 C 186.003906 240.054688 189.21875 240.199219 192.753906 241.828125 C 200.289062 245.3125 208.28125 248.785156 216.726562 252.253906 C 217.402344 252.53125 217.957031 252.964844 218.390625 253.554688 C 218.824219 254.148438 219.070312 254.804688 219.128906 255.535156 C 219.515625 260.148438 219.097656 264.292969 217.882812 267.96875 C 217.15625 270.167969 216.574219 270.132812 216.136719 267.863281 C 215.933594 266.839844 215.4375 265.933594 214.640625 265.148438 C 214.175781 264.699219 213.816406 264.773438 213.5625 265.371094 L 207.589844 279.8125 C 207.359375 280.363281 207.113281 280.378906 206.839844 279.851562 C 206.316406 278.828125 205.929688 277.78125 205.683594 276.714844 C 204.871094 273.15625 202.953125 269.585938 200.90625 266.671875 C 199.601562 264.832031 198.898438 265.039062 198.792969 267.285156 C 198.671875 269.652344 197.792969 272.316406 196.652344 274.351562 C 194.453125 278.253906 192.371094 282.070312 190.402344 285.800781 C 189.570312 287.375 189.078125 287.273438 188.929688 285.5 C 188.722656 283.003906 188.152344 280.746094 187.222656 278.722656 C 186.847656 277.890625 186.613281 277.929688 186.515625 278.839844 Z M 186.515625 278.839844 " fill-opacity="1" fill-rule="nonzero"/><path fill="#000000" d="M 176.3125 336.574219 C 174.464844 330.640625 171.589844 325.035156 167.6875 319.765625 C 162.933594 313.359375 156.171875 307.125 153.703125 299.519531 C 151.425781 292.5 151.332031 285.304688 153.414062 277.933594 C 153.730469 276.789062 153.875 276.8125 153.847656 278 C 153.664062 285.992188 156.21875 293.136719 161.515625 299.429688 C 170.378906 309.960938 180.460938 319.6875 181.367188 334.40625 C 181.78125 341.207031 181.175781 347.574219 179.554688 353.5 C 179.355469 354.242188 179.246094 354.226562 179.226562 353.445312 C 179.089844 347.957031 178.117188 342.332031 176.3125 336.574219 Z M 176.3125 336.574219 " fill-opacity="1" fill-rule="nonzero"/><path fill="#000000" d="M 220.195312 278.40625 C 220.097656 277.042969 220.253906 277.011719 220.667969 278.316406 C 222.355469 283.726562 222.71875 289.574219 221.757812 295.859375 C 221.371094 298.371094 220.601562 300.738281 219.445312 302.960938 C 218.246094 305.253906 216.679688 307.511719 214.746094 309.734375 C 210.140625 315.050781 206.445312 320.066406 203.664062 324.78125 C 198.734375 333.160156 196.113281 342.355469 195.796875 352.371094 C 195.753906 353.890625 195.511719 353.921875 195.074219 352.460938 C 193.402344 346.851562 192.726562 340.902344 193.039062 334.617188 C 193.433594 326.804688 196.742188 318.964844 201.574219 313.019531 C 209.691406 303.054688 221.152344 292.429688 220.195312 278.40625 Z M 220.195312 278.40625 " fill-opacity="1" fill-rule="nonzero"/></svg>